<svg width="178" height="78" viewBox="0 0 178 78" fill="none" xmlns="http://www.w3.org/2000/svg">
<path d="M57.9 24.1C57.1 23.6 56 23.6 55.2 24.1L32 37.4L8.79995 24.1C7.99995 23.6 6.89995 23.6 6.09995 24.1C5.19995 24.6 4.69995 25.5 4.69995 26.4C4.69995 27.3 5.19995 28.3 5.99995 28.7L29.2 42.1V68.9C29.2 69.8 29.7 70.8 30.5 71.2C31.3 71.7 32.4 71.7 33.2 71.2C34 70.7 34.5 69.8 34.5 68.9V42.1L57.7 28.7C58.5 28.2 59 27.3 59 26.4C59.2 25.4 58.7 24.5 57.9 24.1Z" fill="#4AB3FF"/>
<path d="M47.3 40.9L53.8 52C54.2 52.6 53.7 53.4 53 53.5H40.1C38.6 53.5 37.4 54.7 37.4 56.2C37.4 57.7 38.6 58.9 40.1 58.9L59.3 58.8C61.4 58.8 62.7 56.6 61.6 54.8L51.9 38.3C51.2 37 49.5 36.6 48.2 37.4C47 38 46.6 39.6 47.3 40.9Z" fill="#9243E8"/>
<path d="M10.4 52.3L16.8 41.2C17.5 39.9 17.1 38.3 15.8 37.5C14.5 36.8 12.9 37.2 12.1 38.5L2.60001 55.1C1.60001 56.9 2.90001 59.1 5.00001 59.1L24.1 59C25.6 59 26.7 57.8 26.7 56.3C26.7 54.8 25.5 53.6 24 53.6L11.2 53.7C10.5 53.7 10 52.9 10.4 52.3Z" fill="#E14AFF"/>
<path d="M24.7 27.1L31.1 16C31.4 15.4 32.4 15.4 32.8 16L39.2 27C39.9 28.3 41.6 28.7 42.9 27.9C44.2 27.2 44.6 25.5 43.8 24.2L34.2 7.79995C33.2 5.99995 30.6 5.99995 29.6 7.79995L20 24.4C19.3 25.6999 19.7 27.3 21 28.1C22.3 28.8 24 28.4 24.7 27.1Z" fill="#6A57FF"/>
<path d="M80.4 48.5C84.1 48.5 86.5 47 88.2 45V45.9C88.2 47.1 89.3 48.2 90.9 48.2C92.4 48.2 93.6 47.1 93.6 45.6V33.9C93.6 30.8 92.8 28.3 91 26.6C89.3 24.9 86.7 23.9 83.1 23.9C80 23.9 77.7 24.4 75.4 25.3C74.6 25.6 73.9 26.5 73.9 27.5C73.9 28.8 74.9 29.8 76.2 29.8C76.5 29.8 76.7 29.8 77.1 29.7C78.6 29.1 80.3 28.8 82.4 28.8C86.2 28.8 88.3 30.6 88.3 34V34.6C86.5 34 84.6 33.6 81.9 33.6C76 33.4 72 35.9 72 41V41.1C72 45.9 75.9 48.5 80.4 48.5ZM81.9 44.5C79.3 44.5 77.3 43.2 77.3 40.9V40.8C77.3 38.3 79.4 36.8 82.9 36.8C85.1 36.8 86.9 37.2 88.3 37.7V39.3C88.3 42.4 85.5 44.5 81.9 44.5Z" fill="#7574A8"/>
<path d="M105.9 48.5C109.6 48.5 112 47 113.7 45V45.9C113.7 47.1 114.8 48.2 116.4 48.2C117.9 48.2 119.1 47.1 119.1 45.6V33.9C119.1 30.8 118.3 28.3 116.5 26.6C114.8 24.9 112.2 23.9 108.6 23.9C105.5 23.9 103.2 24.4 100.9 25.3C100.1 25.6 99.4 26.5 99.4 27.5C99.4 28.8 100.4 29.8 101.7 29.8C102 29.8 102.2 29.8 102.6 29.7C104.1 29.1 105.8 28.8 107.9 28.8C111.7 28.8 113.8 30.6 113.8 34V34.6C112 34 110.1 33.6 107.4 33.6C101.6 33.6 97.6 36.1 97.6 41.3V41.4C97.5 45.9 101.5 48.5 105.9 48.5ZM107.5 44.5C104.9 44.5 102.9 43.2 102.9 40.9V40.8C102.9 38.3 105 36.8 108.5 36.8C110.7 36.8 112.5 37.2 113.9 37.7V39.3C113.8 42.4 111.1 44.5 107.5 44.5Z" fill="#7574A8"/>
<path d="M124.7 45.5C124.7 47 125.9 48.2 127.4 48.2C128.9 48.2 130.2 47 130.2 45.5V38.5C130.2 32.9 132.9 29.9 136.7 29.2C137.9 29 138.9 28 138.9 26.6C138.9 25 137.9 23.9 136.2 23.9C133.8 23.9 131.5 26.2 130.2 29.1V26.7C130.2 25.2 129 23.9 127.4 23.9C125.9 23.9 124.7 25.1 124.7 26.7V45.5V45.5Z" fill="#7574A8"/>
<path d="M142.3 18C142.3 19.6 143.7 20.7 145.4 20.7C147.2 20.7 148.5 19.6 148.5 18V17.7C148.5 16.1 147.1 15 145.4 15C143.6 15 142.3 16 142.3 17.7V18ZM142.7 45.5C142.7 47 143.9 48.2 145.4 48.2C146.9 48.2 148.2 47 148.2 45.5V26.6C148.2 25.1 147 23.8 145.4 23.8C143.9 23.8 142.7 25 142.7 26.6V45.5Z" fill="#7574A8"/>
<path d="M154.4 45.5C154.4 47 155.6 48.2 157.1 48.2C158.6 48.2 159.9 47 159.9 45.5V34.5C159.9 30.8 162.1 28.6 165.3 28.6C168.5 28.6 170.4 30.7 170.4 34.4V45.4C170.4 46.9 171.6 48.0999 173.2 48.0999C174.7 48.0999 175.9 46.9 175.9 45.4V32.7999C175.9 27.2999 172.8 23.7 167.4 23.7C163.7 23.7 161.5 25.5999 160 27.7999V26.6C160 25.1 158.8 23.7999 157.2 23.7999C155.7 23.7999 154.5 25 154.5 26.6V45.5H154.4Z" fill="#7574A8"/>
</svg>
