<?xml version="1.0" encoding="utf-8"?>
<!-- Generator: Adobe Illustrator 26.3.1, SVG Export Plug-In . SVG Version: 6.00 Build 0)  -->
<svg version="1.1" id="layer" xmlns="http://www.w3.org/2000/svg" xmlns:xlink="http://www.w3.org/1999/xlink" x="0px" y="0px"
	 viewBox="0 0 613 251.1" style="enable-background:new 0 0 613 251.1;" xml:space="preserve">
<style type="text/css">
	.st0{fill-rule:evenodd;clip-rule:evenodd;fill:#26B7BC;}
	.st1{fill-rule:evenodd;clip-rule:evenodd;fill:#E60033;}
</style>
<g>
	<path class="st0" d="M402.2,125.8c12.7-12.7,20.6-30.3,20.6-49.7c0-38.8-31.5-70.2-70.2-70.2c-38.8,0-70.2,31.5-70.2,70.2
		c0,19.4,7.9,37,20.6,49.7c-12.7,12.7-20.6,30.3-20.6,49.7c0,38.8,31.5,70.2,70.2,70.2c38.8,0,70.2-31.5,70.2-70.2
		C422.8,156.1,414.9,138.5,402.2,125.8"/>
	<path class="st1" d="M268.4,210.6V70.1c0-19.4-15.7-35.1-35.1-35.1s-35.1,15.7-35.1,35.1v140.5c0,19.4,15.7,35.1,35.1,35.1
		S268.4,230,268.4,210.6"/>
	<path class="st1" d="M571.1,35h-99.3c-19.4,0-35.1,15.7-35.1,35.1s15.7,35.1,35.1,35.1h14.6v105.4c0,19.4,15.7,35.1,35.1,35.1
		s35.1-15.7,35.1-35.1V105.2h14.5c19.4,0,35.1-15.7,35.1-35.1C606.3,50.7,590.5,35,571.1,35"/>
	<path class="st1" d="M149.2,245.7c19.4,0,35.1-15.7,35.1-35.1s-15.7-35.1-35.1-35.1h-37.6c-19.4,0-35.1-15.7-35.1-35.1
		s15.7-35.1,35.1-35.1h37.6c19.4,0,35.1-15.7,35.1-35.1s-15.7-35.1-35.1-35.1h-37.6C53.4,35.1,6.2,82.3,6.2,140.5
		s47.2,105.4,105.4,105.4h37.6V245.7z"/>
	<path class="st1" d="M302.9,125.8c-12.7-12.7-20.6-30.3-20.6-49.7c0-37.4,29.3-68,66.2-70.1c-6,0.9-11.8,3.7-16.5,8.4
		c-11.5,11.5-11.6,30-0.3,41.3l130.4,130.1c13.7,13.7,13.7,36,0,49.7s-36,13.7-49.7,0L302.9,125.8z"/>
</g>
</svg>
