<?xml version="1.0" encoding="utf-8"?>
<!-- Generator: Adobe Illustrator 26.2.1, SVG Export Plug-In . SVG Version: 6.00 Build 0)  -->
<svg version="1.1"
	 id="svg4734" inkscape:version="0.92.0 r15299" sodipodi:docname="ford.svg" xmlns:cc="http://creativecommons.org/ns#" xmlns:dc="http://purl.org/dc/elements/1.1/" xmlns:inkscape="http://www.inkscape.org/namespaces/inkscape" xmlns:rdf="http://www.w3.org/1999/02/22-rdf-syntax-ns#" xmlns:sodipodi="http://sodipodi.sourceforge.net/DTD/sodipodi-0.dtd" xmlns:svg="http://www.w3.org/2000/svg"
	 xmlns="http://www.w3.org/2000/svg" xmlns:xlink="http://www.w3.org/1999/xlink" x="0px" y="0px" viewBox="0 0 200 75"
	 style="enable-background:new 0 0 200 75;" xml:space="preserve">
<style type="text/css">
	.st0{fill:#003478;}
	.st1{fill:#FFFFFF;}
</style>
<sodipodi:namedview  bordercolor="#666666" borderopacity="1.0" fit-margin-bottom="0" fit-margin-left="0" fit-margin-right="0" fit-margin-top="0" id="base" inkscape:current-layer="layer1" inkscape:cx="42.75444" inkscape:cy="16.344345" inkscape:document-units="mm" inkscape:pageopacity="0.0" inkscape:pageshadow="2" inkscape:window-height="744" inkscape:window-maximized="1" inkscape:window-width="1280" inkscape:window-x="-4" inkscape:window-y="-4" inkscape:zoom="10.490138" pagecolor="#ffffff" showgrid="false" units="px">
	</sodipodi:namedview>
<g id="layer1" transform="translate(-127.15947,-152.69208)" inkscape:groupmode="layer" inkscape:label="Layer 1">
	<path id="path737" inkscape:connector-curvature="0" class="st0" d="M227.2,152.7c-55.5,0-100,16.6-100,37.5
		c0,20.7,44.9,37.5,100,37.5c55.1,0,100-16.8,100-37.5S282.3,152.7,227.2,152.7"/>
	<path id="path741" inkscape:connector-curvature="0" class="st1" d="M266.5,198.1c0,0.2,0.3,0.3,0.5,0.4c0.1,0,0.1,0.1,0,0.3
		c-0.6,1.3-1.2,2.1-2,3.3c-0.7,1.1-1.5,1.9-2.5,2.7c-1.5,1.2-3.5,2.6-5.2,1.7c-0.8-0.4-1.1-1.4-1.1-2.3c0-2.4,1.1-4.9,3.1-7.3
		c2.4-3,5.1-4.5,6.8-3.7c1.8,0.9,1.2,2.9,0.4,4.6C266.5,197.9,266.5,198,266.5,198.1 M285.9,179.4c0.1-0.2,0-0.4-0.3-0.4
		c-1.5,0-3.5,0-5.1,0c-0.4,0-0.6,0-0.7,0.4c-0.6,1.1-7.6,11.7-9,13.7c-0.2,0.3-0.5,0.3-0.5-0.1c-0.1-1.2-1.2-2.6-2.8-3.3
		c-1.3-0.5-2.5-0.6-3.8-0.4c-2.3,0.3-4.4,1.5-6.2,2.9c-2.7,2.1-5.1,4.8-8.2,6.8c-1.7,1.1-4,2-5.5,0.6c-1.4-1.3-1.2-4.1,0.9-6.3
		c0.2-0.2,0.5,0,0.4,0.2c-0.2,1,0,2,0.8,2.7c0.9,0.8,2.2,0.9,3.4,0.4c1.3-0.7,2.1-1.9,2.3-3.4c0.4-2.2-1.4-4.2-3.5-4.4
		c-1.8-0.1-3.4,0.5-5.1,1.8c-0.8,0.7-1.3,1.2-2,2.2c-0.2,0.2-0.4,0.3-0.4-0.1c0.1-2.9-1.1-4.5-3.5-4.5c-1.8,0-3.8,1-5.4,2.2
		c-1.7,1.4-3.2,3.1-4.7,4.8c-0.2,0.2-0.4,0.2-0.4-0.2c0-1.9-0.5-3.8-1.4-5.1c-0.3-0.5-1-0.7-1.5-0.4c-0.3,0.1-1.1,0.5-1.8,1.1
		c-0.3,0.3-0.4,0.6-0.3,1.1c0.9,2.8,0.7,6.1-0.5,8.8c-1.1,2.5-3.1,4.8-5.5,5.5c-1.6,0.5-3.3,0.3-4.3-1.2c-1.4-2-0.8-5.4,1.3-8.2
		c1.9-2.5,4.5-4.1,7.2-5.1c0.3-0.1,0.4-0.3,0.3-0.6c-0.1-0.4-0.4-1-0.5-1.3c-0.2-0.7-0.9-0.8-1.8-0.7c-1.9,0.2-3.7,0.9-5.4,1.8
		c-4.5,2.4-6.8,7.1-7.8,9.7c-0.5,1.2-0.9,2-1.4,2.6c-0.7,0.9-1.6,1.7-3.3,3.2c-0.1,0.1-0.3,0.4-0.1,0.7c0.2,0.3,1,1.6,1.3,1.7
		c0.3,0.1,0.6-0.1,0.7-0.1c1.1-0.8,2.5-2,3.2-2.9c0.2-0.3,0.5-0.2,0.6,0.3c0.6,2.2,2.3,4.1,4.5,4.8c4.2,1.4,8.5-0.6,11.7-4.2
		c2.1-2.2,2.8-3.7,3.6-4.7c1.3-1.7,4-5.4,7.2-7.8c1.2-0.9,2.5-1.6,3.2-1.1c0.6,0.4,0.7,1.2-0.2,2.8c-3.2,5.9-8,12.8-8.8,14.5
		c-0.2,0.3,0,0.5,0.3,0.5c1.7,0,3.4,0,4.9,0c0.3,0,0.4-0.1,0.5-0.3c2.5-3.9,4.8-7.6,7.3-11.4c0.1-0.2,0.3-0.1,0.3,0
		c0.1,0.9,0.3,2.1,0.8,2.9c0.9,1.5,2.3,2.1,3.8,2.1c1.2,0,1.8-0.2,3-0.6c1-0.4,1.9-0.9,2.5-1.3c0.4-0.3,0.4,0.2,0.4,0.2
		c-0.6,3.1,0.1,6.7,3.2,8.2c3.7,1.8,7.7-0.7,10-3c0.2-0.2,0.5-0.2,0.5,0.3c0.1,0.9,0.4,1.9,1.2,2.6c1.9,1.9,5.8,1.2,9.8-1.9
		c2.5-1.9,5.2-4.7,7.5-7.6c0.1-0.1,0.2-0.3,0-0.5c-0.4-0.4-0.9-0.8-1.2-1.1c-0.2-0.1-0.4-0.1-0.5,0c-2.4,2.3-4.6,5-7.8,7.2
		c-1.1,0.7-2.8,1.3-3.5,0.3c-0.3-0.4-0.3-1,0-1.7C270.5,203,285.1,180.7,285.9,179.4"/>
	<path id="path745" inkscape:connector-curvature="0" class="st1" d="M217,182.1c0.1,0.3,0.2,0.4,0.3,0.4c0.7-0.1,1.6-0.8,2-1.5
		c0.4-0.6,0.6-1.6,0.2-1.9c-0.4-0.3-1-0.2-1.5,0.2C217.2,180.1,216.9,181.2,217,182.1 M179.7,210.8c-5.5,0-10.3-3.3-10.8-9.2
		c-0.3-3.2,0.6-6.1,2.4-8.5c1.6-2.1,4.4-3.9,6.7-4.3c0.8-0.1,1.8-0.1,2.2,0.5c0.7,0.8,0.5,1.6-0.2,1.9c-1.8,0.9-3.9,2.5-5,4.6
		c-0.9,1.7-1,3.8,0.3,5.8c2.2,3.3,8.3,3.4,14-1.9c1.4-1.3,2.7-2.5,3.9-4c2.5-2.9,3.3-3.9,6.7-8.5c0-0.1,0.1-0.1,0-0.2
		c0-0.1-0.1-0.1-0.2-0.1c-2.2,0.1-4.2,0.7-6,2.1c-0.5,0.4-1.3,0.3-1.7-0.2c-0.4-0.6-0.1-1.4,0.5-1.8c3-2.1,6.3-2.5,9.7-3.1
		c0,0,0.2,0,0.4-0.2c1.4-1.8,2.4-3.4,3.9-5.2c1.5-1.8,3.4-3.5,4.9-4.8c2.1-1.8,3.4-2.4,4.7-3.1c0.4-0.2,0-0.4-0.2-0.4
		c-7.5-1.4-15.2-3.2-22.6-0.5c-5.1,1.9-7.4,6-6.3,8.7c0.8,1.9,3.3,2.2,5.7,1.1c2-1,3.8-2.5,5.1-4.5c0.7-1.1,2.3-0.3,1.4,1.6
		c-2.2,5.1-6.3,9.1-11.4,9.3c-4.3,0.1-7.1-3-7.1-6.9c0-7.7,8.6-12.8,17.6-13.5c10.8-0.9,21.1,2,31.9,3.3c8.2,1,16.2,1,24.4-0.9
		c1-0.2,1.7,0.4,1.6,1.4c-0.1,1.4-1.2,2.8-3.9,4.3c-3.1,1.7-6.4,2.2-9.7,2.2c-8.2,0.1-15.8-3.1-23.7-4.8c0,0.3,0.1,0.8-0.2,1
		c-4.4,3.2-8.3,6.5-11,11.1c-0.1,0.1,0,0.2,0.1,0.2c2.3-0.1,4.4-0.2,6.5-0.4c0.4,0,0.4-0.1,0.4-0.4c-0.2-1.6,0.3-3.4,1.7-4.6
		c1.4-1.3,3.2-1.4,4.4-0.5c1.3,1.1,1.2,2.9,0.5,4.4c-0.8,1.4-2,2.2-3.2,2.6c0,0-0.3,0.1-0.2,0.3c0,0.4,1.7,1.3,1.8,1.5
		c0.1,0.2,0.1,0.6-0.2,0.9c-0.2,0.2-0.4,0.4-0.8,0.4c-0.3,0-0.4-0.1-0.8-0.3c-0.7-0.4-1.6-1-2.2-1.8c-0.2-0.3-0.3-0.3-0.8-0.2
		c-2.3,0.1-6,0.5-8.4,0.8c-0.6,0.1-0.7,0.2-0.8,0.4c-3.9,6.5-8.1,13.4-12.7,18.1C188.1,209.5,184,210.8,179.7,210.8"/>
	<path id="path749" inkscape:connector-curvature="0" class="st1" d="M227.2,158.8c-51.1,0-92.5,14.1-92.5,31.4
		c0,17.3,41.4,31.4,92.5,31.4c51.1,0,92.5-14.1,92.5-31.4C319.6,172.9,278.2,158.8,227.2,158.8 M227.2,224.4
		c-52.9,0-95.8-15.3-95.8-34.2c0-18.9,42.9-34.2,95.8-34.2c52.9,0,95.8,15.3,95.8,34.2C323,209.1,280.1,224.4,227.2,224.4"/>
</g>
</svg>
