<?xml version="1.0" encoding="utf-8"?>
<!-- Generator: Adobe Illustrator 25.2.3, SVG Export Plug-In . SVG Version: 6.00 Build 0)  -->
<svg version="1.1"
	 id="svg6" inkscape:version="0.92.2 (5c3e80d, 2017-08-06)" sodipodi:docname="ifood-logo.svg" xmlns:cc="http://creativecommons.org/ns#" xmlns:dc="http://purl.org/dc/elements/1.1/" xmlns:inkscape="http://www.inkscape.org/namespaces/inkscape" xmlns:rdf="http://www.w3.org/1999/02/22-rdf-syntax-ns#" xmlns:sodipodi="http://sodipodi.sourceforge.net/DTD/sodipodi-0.dtd" xmlns:svg="http://www.w3.org/2000/svg"
	 xmlns="http://www.w3.org/2000/svg" xmlns:xlink="http://www.w3.org/1999/xlink" x="0px" y="0px" viewBox="0 0 3250.4 1764.1"
	 style="enable-background:new 0 0 3250.4 1764.1;" xml:space="preserve">
<style type="text/css">
	.st0{fill:#EA1D2C;}
</style>
<sodipodi:namedview  bordercolor="#666666" borderopacity="1" gridtolerance="10" guidetolerance="10" id="namedview8" inkscape:current-layer="svg6" inkscape:cx="816.30726" inkscape:cy="900.96384" inkscape:pageopacity="0" inkscape:pageshadow="2" inkscape:window-height="837" inkscape:window-maximized="1" inkscape:window-width="1600" inkscape:window-x="-8" inkscape:window-y="-8" inkscape:zoom="0.055242717" objecttolerance="10" pagecolor="#ffffff" showgrid="false">
	</sodipodi:namedview>
<path id="path2" inkscape:connector-curvature="0" inkscape:export-filename="C:\Users\suitedoalex\Desktop\logos comidas\ifood-logo.png" inkscape:export-xdpi="123.75137" inkscape:export-ydpi="123.75137" class="st0" d="
	M36.5,1006.5h241.8l134.4-668.4H170.8L36.5,1006.5z M221.2,277.6h285.5l47-235.1H268.2L221.2,277.6z M372.4,1194.6h241.8L762,472.4
	h181.4l26.9-134.4h-178l6.7-30.2c10.1-57.1,30.2-120.9,120.9-120.9c53.7,0,104.1,3.4,154.5,26.9l26.9-141.1
	c-57.1-20.2-117.6-30.2-174.7-30.2c-194.8,0-329.2,114.2-379.5,295.6h-84l-26.9,134.4h84L372.4,1194.6z"/>
<path id="path4" inkscape:connector-curvature="0" inkscape:export-filename="C:\Users\suitedoalex\Desktop\logos comidas\ifood-logo.png" inkscape:export-xdpi="123.75137" inkscape:export-ydpi="123.75137" class="st0" d="
	M1138.2,1019.9c285.5,0,483.7-258.6,483.7-470.2c0-157.9-144.4-225-285.5-225c-312.4,0-483.7,278.8-483.7,470.2
	C852.7,952.7,1000.5,1019.9,1138.2,1019.9 M1904,1019.9c285.5,0,483.7-258.6,483.7-470.2c0-157.9-147.8-225-288.9-225
	c-312.4,0-483.7,278.8-483.7,470.2C1615.1,952.7,1766.3,1019.9,1904,1019.9 M2780.7,1006.5h238.5l194.8-950.6h-241.8L2915,338.1
	L2814.2,328c-235.1,0-450.1,302.3-450.1,517.3c0,87.3,57.1,174.7,154.5,174.7c137.7,0,235.1-67.2,275.4-134.4h13.4L2780.7,1006.5z
	 M2035,1506.9c-187.7,155.5-428.8,231.5-671.8,211.6c-319.1-20.2-547.5-265.3-587.8-524h13.4c73.9,161.2,251.9,312.4,470.2,335.9
	c221.7,26.9,487-73.9,631.5-211.6l-161.2-124.3h487l-107.5,517.3l-70.5-201.5L2035,1506.9z"/>
</svg>
