<?xml version="1.0" encoding="utf-8"?>
<!-- Generator: Adobe Illustrator 25.4.1, SVG Export Plug-In . SVG Version: 6.00 Build 0)  -->
<svg version="1.1"
	 id="svg6" xmlns:cc="http://creativecommons.org/ns#" xmlns:dc="http://purl.org/dc/elements/1.1/" xmlns:inkscape="http://www.inkscape.org/namespaces/inkscape" xmlns:rdf="http://www.w3.org/1999/02/22-rdf-syntax-ns#" xmlns:sodipodi="http://sodipodi.sourceforge.net/DTD/sodipodi-0.dtd" xmlns:svg="http://www.w3.org/2000/svg"
	 xmlns="http://www.w3.org/2000/svg" xmlns:xlink="http://www.w3.org/1999/xlink" x="0px" y="0px" viewBox="0 0 520.2 296.2"
	 style="enable-background:new 0 0 520.2 296.2;" xml:space="preserve">
<style type="text/css">
	.st0{fill:#820AD1;}
</style>
<sodipodi:namedview  bordercolor="#666666" borderopacity="1" gridtolerance="10" guidetolerance="10" id="namedview8" inkscape:current-layer="svg6" inkscape:cx="305.81557" inkscape:cy="-68.433024" inkscape:pageopacity="0" inkscape:pageshadow="2" inkscape:window-height="838" inkscape:window-maximized="1" inkscape:window-width="1600" inkscape:window-x="-8" inkscape:window-y="-8" inkscape:zoom="0.31240709" objecttolerance="10" pagecolor="#ffffff" showgrid="false">
	</sodipodi:namedview>
<path id="path2" inkscape:connector-curvature="0" inkscape:export-filename="C:\Users\alex\sites\nubank-logo-5.png" inkscape:export-xdpi="132.76538" inkscape:export-ydpi="132.76538" class="st0" d="
	M98.4,35.1c16-16.8,37.2-26.6,62.2-26.6c48.6,0,80.8,35.5,87,88.6c2,17.3,2,41.6,2,69.8c0,2.9,0,5.8,0,8.8v105.6h-66.8v-78.1
	c0,0-0.1-66.8-0.5-79.3C180.4,69.4,148.2,35.2,98.4,35.1c-15,15.9-23.1,35.3-24.2,65c-0.2,4.1-0.1,18.8-0.1,38.1
	c0,10,0.1,21.3,0.1,33c0,50.9,0,110.1,0,110.1H7.4V161.1c0-4.1-0.1-8.3-0.2-12.4c-0.2-8.4-0.3-16.8,0.2-25.2
	c0.8-14,3.2-27.7,9.7-40.4C32,53.8,62.5,35,95,35C96.2,35,97.3,35.1,98.4,35.1L98.4,35.1z"/>
<path id="path4" inkscape:connector-curvature="0" inkscape:export-filename="C:\Users\alex\sites\nubank-logo-5.png" inkscape:export-xdpi="132.76538" inkscape:export-ydpi="132.76538" class="st0" d="
	M512.9,172.8c0.5-8.4,0.3-16.8,0.2-25.2c-0.1-4.2-0.2-8.3-0.2-12.4V14.9h-66.8c0,0,0,59.2,0,110.1c0,11.7,0,23,0.1,33
	c0.1,19.3,0.1,34-0.1,38.1c-1.2,29.6-9.2,49-24.2,64.9c-49.7,0-82-34.2-83.7-88.6c-0.4-12.5-0.6-43.5-0.6-79.4V14.9L270.8,15v105.6
	c0,3,0,5.9,0,8.8c0,28.2,0,52.5,2,69.8c6.2,53.1,38.4,88.6,87,88.6c24.9,0,46.2-9.8,62.2-26.6c1.1,0,2.3,0.1,3.4,0.1
	c32.6,0,63.1-18.8,78-48C509.8,200.4,512.2,186.7,512.9,172.8L512.9,172.8z"/>
</svg>
