<?xml version="1.0" encoding="utf-8"?>
<!-- Generator: Adobe Illustrator 24.2.1, SVG Export Plug-In . SVG Version: 6.00 Build 0)  -->
<svg version="1.1" id="Layer_1" xmlns="http://www.w3.org/2000/svg" xmlns:xlink="http://www.w3.org/1999/xlink" x="0px" y="0px"
	 viewBox="0 0 88.7 87.5" style="enable-background:new 0 0 88.7 87.5;" xml:space="preserve">
<style type="text/css">
	.st0{fill:url(#SVGID_1_);}
	.st1{fill:url(#SVGID_2_);}
	.st2{fill:#070707;}
</style>
<g>
	
		<linearGradient id="SVGID_1_" gradientUnits="userSpaceOnUse" x1="3.5147" y1="73.8477" x2="60.3801" y2="12.3084" gradientTransform="matrix(1 0 0 -1 0 90)">
		<stop  offset="0" style="stop-color:#00ABDA"/>
		<stop  offset="1" style="stop-color:#55A887"/>
	</linearGradient>
	<polygon class="st0" points="28,54.6 47.8,27.5 34.8,27.5 13.4,57.1 13.4,65.4 74.9,65.4 74.9,54.9 28,54.9 	"/>
	
		<linearGradient id="SVGID_2_" gradientUnits="userSpaceOnUse" x1="30.244" y1="98.547" x2="87.1094" y2="37.0076" gradientTransform="matrix(1 0 0 -1 0 90)">
		<stop  offset="0" style="stop-color:#00ABDA"/>
		<stop  offset="1" style="stop-color:#55A887"/>
	</linearGradient>
	<polygon class="st1" points="14.5,2.4 14.5,3.3 14.5,12.9 61.4,12.9 61.4,13.2 41.6,40.3 54.6,40.3 76,10.7 76,10.7 76,2.4 	"/>
	<path class="st2" d="M13.1,73.2h7.3l-7.5,10.5c-0.1,0.2-0.2,0.3-0.2,0.5v0.7h9.8v-1.4h-7.5L22.5,73c0.1-0.2,0.2-0.4,0.2-0.6v-0.7
		h-9.6L13.1,73.2L13.1,73.2z"/>
	<rect x="25.3" y="71.7" class="st2" width="1.8" height="13.2"/>
	<path class="st2" d="M37.3,79.6c0,0.1,0,0.2,0.1,0.2c0.1,0.1,0.2,0.1,0.3,0.1h2v2.9c-0.2,0.1-0.5,0.2-0.7,0.3
		c-0.2,0.1-0.5,0.2-0.7,0.2c-0.3,0.1-0.5,0.1-0.8,0.2s-0.6,0.1-1,0.1c-0.7,0-1.4-0.1-2-0.4s-1.1-0.6-1.5-1c-0.4-0.4-0.8-1-1-1.7
		c-0.2-0.7-0.3-1.4-0.3-2.2c0-0.8,0.1-1.5,0.3-2.2c0.2-0.6,0.5-1.2,1-1.6c0.4-0.4,0.9-0.8,1.5-1c0.6-0.2,1.3-0.4,2-0.4
		c0.5,0,1,0,1.3,0.1c0.4,0.1,0.7,0.2,1,0.3s0.5,0.2,0.7,0.3c0.2,0.1,0.4,0.2,0.5,0.3c0.1,0.1,0.2,0.1,0.3,0.1c0.2,0,0.3-0.1,0.4-0.2
		l0.5-0.8c-0.3-0.3-0.6-0.5-0.9-0.7c-0.3-0.2-0.7-0.4-1.1-0.5s-0.8-0.2-1.2-0.3s-0.9-0.1-1.5-0.1c-1,0-2,0.2-2.8,0.5
		c-0.8,0.3-1.5,0.8-2.1,1.4c-0.6,0.6-1,1.3-1.3,2.1c-0.3,0.8-0.5,1.7-0.5,2.8c0,1,0.2,1.9,0.5,2.7s0.8,1.5,1.3,2.1
		c0.6,0.6,1.3,1.1,2.1,1.4c0.8,0.3,1.7,0.5,2.6,0.5h0c0.5,0,1,0,1.5-0.1c0.5-0.1,0.9-0.2,1.3-0.3c0.4-0.1,0.8-0.3,1.2-0.4
		s0.7-0.4,1-0.6v-5.1h-4L37.3,79.6L37.3,79.6z"/>
	<path class="st2" d="M53.1,75.8c0-0.6-0.1-1.2-0.3-1.7c-0.2-0.5-0.5-0.9-0.9-1.3c-0.4-0.3-0.9-0.6-1.5-0.8
		c-0.6-0.2-1.3-0.3-2.2-0.3h-3.9v13.2h1.8V80h2.1c0.8,0,1.5-0.1,2.1-0.3c0.6-0.2,1.1-0.5,1.5-0.9s0.7-0.8,0.9-1.3
		C53,77,53.1,76.4,53.1,75.8z M51.1,76.9c-0.1,0.3-0.3,0.6-0.6,0.9c-0.3,0.2-0.6,0.4-1,0.6c-0.4,0.1-0.8,0.2-1.3,0.2h-2.1v-5.4h2.1
		c1.1,0,1.8,0.2,2.3,0.7c0.5,0.5,0.8,1.1,0.8,2C51.3,76.2,51.2,76.6,51.1,76.9z"/>
	<path class="st2" d="M57.8,71.7l-5.3,13.2h1.4c0.2,0,0.3,0,0.4-0.1s0.2-0.2,0.2-0.3l1.2-3.2h5.9l1.2,3.2c0.1,0.1,0.1,0.2,0.2,0.3
		s0.2,0.1,0.4,0.1h1.4l-5.3-13.2L57.8,71.7L57.8,71.7z M56.3,80l2.1-5.3c0.1-0.2,0.1-0.3,0.2-0.6c0.1-0.2,0.1-0.4,0.2-0.7
		c0.1,0.5,0.3,0.9,0.4,1.2l2.1,5.4H56.3z"/>
	<path class="st2" d="M73,71.9c-0.1,0.1-0.2,0.2-0.2,0.3l-3,5.1c-0.1,0.2-0.2,0.4-0.3,0.6c-0.1,0.2-0.1,0.4-0.2,0.6
		c-0.1-0.2-0.1-0.4-0.2-0.6c-0.1-0.2-0.2-0.4-0.3-0.6l-3-5.1c-0.1-0.1-0.1-0.2-0.2-0.3c-0.1-0.1-0.2-0.1-0.4-0.1h-1.6l4.8,7.9v5.2
		h1.8v-5.2l4.8-7.9h-1.6C73.2,71.7,73.1,71.8,73,71.9z"/>
</g>
</svg>
